<svg width="88" height="106" viewBox="0 0 88 106" fill="none" xmlns="http://www.w3.org/2000/svg">
<g clip-path="url(#clip0_8_1097)">
<path d="M66.1399 -6.10352e-05H21.8545C18.1464 -6.10352e-05 15.1404 3.00477 15.1404 6.71142V30.3973C15.1404 34.104 18.1464 37.1088 21.8545 37.1088H66.1399C69.848 37.1088 72.854 34.104 72.854 30.3973V6.71142C72.854 3.00477 69.848 -6.10352e-05 66.1399 -6.10352e-05Z" fill="#E94824"/>
<path d="M60.8749 -6.10352e-05H27.1251V37.1088H60.8749V-6.10352e-05Z" fill="#F4826B"/>
<path d="M44 105.376C68.3005 105.376 88 85.6841 88 61.3932C88 37.1023 68.3005 17.4106 44 17.4106C19.6995 17.4106 0 37.1023 0 61.3932C0 85.6841 19.6995 105.376 44 105.376Z" fill="#ECB31F"/>
<path d="M44 102.803C66.8791 102.803 85.4262 84.2632 85.4262 61.3932C85.4262 38.5231 66.8791 19.9833 44 19.9833C21.1209 19.9833 2.57375 38.5231 2.57375 61.3932C2.57375 84.2632 21.1209 102.803 44 102.803Z" fill="#AE732A"/>
<path d="M44 93.8096C61.9102 93.8096 76.4293 79.2963 76.4293 61.3932C76.4293 43.4901 61.9102 28.9767 44 28.9767C26.0898 28.9767 11.5707 43.4901 11.5707 61.3932C11.5707 79.2963 26.0898 93.8096 44 93.8096Z" fill="#ECB31F"/>
<path d="M44 93.8096C61.9102 93.8096 76.4293 79.2963 76.4293 61.3932C76.4293 43.4901 61.9102 28.9767 44 28.9767C26.0898 28.9767 11.5707 43.4901 11.5707 61.3932C11.5707 79.2963 26.0898 93.8096 44 93.8096Z" fill="#ECB31F"/>
</g>
<defs>
<clipPath id="clip0_8_1097">
<rect width="88" height="105.376" fill="white"/>
</clipPath>
</defs>
</svg>
